<?xml version="1.0" encoding="UTF-8"?>
<!DOCTYPE svg PUBLIC "-//W3C//DTD SVG 1.1//EN" "http://www.w3.org/Graphics/SVG/1.1/DTD/svg11.dtd">
<!-- Creator: CorelDRAW (Not for commercial use) -->
<svg xmlns="http://www.w3.org/2000/svg" xml:space="preserve" width="206px" height="206px" version="1.1" style="shape-rendering:geometricPrecision; text-rendering:geometricPrecision; image-rendering:optimizeQuality; fill-rule:evenodd; clip-rule:evenodd"
viewBox="0 0 365.79 365.79"
 xmlns:xlink="http://www.w3.org/1999/xlink"
 xmlns:xodm="http://www.corel.com/coreldraw/odm/2003">
 <defs>
  <style type="text/css">
   <![CDATA[
    .str0 {stroke:#2B2B2A;stroke-width:14.83;stroke-miterlimit:22.9256}
    .fil1 {fill:#B7BCDD}
    .fil0 {fill:#F9C8DD}
   ]]>
  </style>
 </defs>
 <g id="Layer_x0020_1">
  <metadata id="CorelCorpID_0Corel-Layer"/>
  <circle class="fil0 str0" cx="182.9" cy="182.9" r="175.48"/>
  <path class="fil1 str0" d="M193.62 195.66l-80.01 80.01c-7.02,7.01 -18.5,7.01 -25.52,0l0 0c-7.02,-7.02 -6.93,-18.39 0.08,-25.41l67.28 -67.28 -67.36 -67.34c-7.01,-7.01 -7.02,-18.5 0,-25.51l0 0c7.02,-7.02 18.5,-7.02 25.52,0l80.01 80.01c7.02,7.01 7.02,18.5 0,25.52zm-21.45 0l80.01 80.01c7.02,7.01 18.5,7.01 25.52,0l0 0c7.02,-7.02 6.94,-18.39 -0.08,-25.41l-67.28 -67.28 67.36 -67.34c7.02,-7.01 7.02,-18.5 0,-25.51l0 0c-7.02,-7.02 -18.5,-7.02 -25.52,0l-80.01 80.01c-7.01,7.01 -7.01,18.5 0,25.52z"/>
 </g>
</svg>
