<?xml version="1.0" encoding="UTF-8"?>
<!DOCTYPE svg PUBLIC "-//W3C//DTD SVG 1.1//EN" "http://www.w3.org/Graphics/SVG/1.1/DTD/svg11.dtd">
<!-- Creator: CorelDRAW (Not for commercial use) -->
<svg xmlns="http://www.w3.org/2000/svg" xml:space="preserve" width="100px" height="100px" version="1.1" style="shape-rendering:geometricPrecision; text-rendering:geometricPrecision; image-rendering:optimizeQuality; fill-rule:evenodd; clip-rule:evenodd"
viewBox="0 0 99.8 99.8"
 xmlns:xlink="http://www.w3.org/1999/xlink"
 xmlns:xodm="http://www.corel.com/coreldraw/odm/2003">
 <defs>
  <style type="text/css">
   <![CDATA[
    .str0 {stroke:#444;stroke-width:0.28;stroke-miterlimit:22.9256}
    .fil1 {fill:white}
    .fil0 {fill:#444}
   ]]>
  </style>
 </defs>
 <g id="Layer_x0020_1">
  <metadata id="CorelCorpID_0Corel-Layer"/>
  <g id="_105553144002912">
   <circle class="fil0 str0" cx="49.9" cy="49.9" r="49.76"/>
   <g>
    <path class="fil1 str0" d="M25.3 22.54c16.51,0 33.02,0 49.53,0 6.61,-0.06 6.54,12.24 0,12.28 -16.51,0 -33.02,0 -49.53,0 -6.99,-0.01 -7.05,-12.18 0,-12.28z"/>
    <path class="fil1 str0" d="M25.3 64.98c16.51,0 33.02,0 49.53,0 6.61,-0.06 6.54,12.24 0,12.28 -16.51,0 -33.02,0 -49.53,0 -6.99,0 -7.05,-12.18 0,-12.28z"/>
    <path class="fil1 str0" d="M25.3 43.76c16.51,0 33.02,0 49.53,0 6.61,-0.06 6.54,12.24 0,12.28 -16.51,0 -33.02,0 -49.53,0 -6.99,0 -7.05,-12.18 0,-12.28z"/>
   </g>
  </g>
 </g>
</svg>
